<?xml version="1.0" encoding="iso-8859-1"?>
<!-- Uploaded to: SVG Repo, www.svgrepo.com, Generator: SVG Repo Mixer Tools -->
<svg height="800px" width="800px" version="1.1" id="Layer_1" xmlns="http://www.w3.org/2000/svg" xmlns:xlink="http://www.w3.org/1999/xlink" 
	 viewBox="0 0 512 512" xml:space="preserve">
<polygon style="fill:#C97767;" points="42.579,145.121 58.718,356.47 224.135,356.47 240.274,145.121 "/>
<path style="fill:#EF5352;" d="M101.437,242.107l7.718,112.321"/>
<path style="fill:#FFCAAB;" d="M38.571,356.47l3.36,44l0.058,0.677c2.426,25.695,24.542,45.823,50.352,45.823h98.169
	c25.81,0,47.927-20.128,50.351-45.823l0.032-0.339l3.385-44.34H38.571V356.47z"/>
<polygon style="fill:#00AE90;" points="255.143,92.355 205.578,92.355 200.646,65.03 82.208,65.03 77.274,92.355 27.708,92.355 
	27.784,145.121 255.069,145.121 "/>
<polygon style="fill:#C97767;" points="271.726,145.121 287.865,356.47 453.282,356.47 469.421,145.121 "/>
<path style="fill:#EF5352;" d="M330.583,242.107l7.718,112.321"/>
<path style="fill:#FFCAAB;" d="M267.72,356.47l3.36,44l0.058,0.677c2.426,25.695,24.542,45.823,50.352,45.823h98.169
	c25.81,0,47.927-20.128,50.351-45.823l0.032-0.339l3.385-44.34H267.72V356.47z"/>
<polygon style="fill:#00AE90;" points="484.292,92.355 434.726,92.355 429.792,65.03 311.354,65.03 306.422,92.355 256.857,92.355 
	256.931,145.121 484.216,145.121 "/>
<path d="M497.947,342.417h-24.52h-4.978l13.991-183.242h1.775c7.753,0,14.042-6.28,14.053-14.033l0.074-52.766
	c0.006-3.731-1.473-7.31-4.109-9.95c-2.636-2.639-6.213-4.123-9.944-4.123h-37.822l-2.847-15.769
	c-1.207-6.691-7.031-11.557-13.83-11.557H311.353c-6.797,0-12.621,4.867-13.83,11.556L294.676,78.3h-37.822
	c-0.287,0-0.571,0.025-0.856,0.042c-0.285-0.017-0.569-0.042-0.856-0.042H217.32l-2.847-15.769
	c-1.207-6.689-7.031-11.556-13.83-11.556H82.208c-6.797,0-12.621,4.867-13.83,11.557l-2.847,15.769H27.708
	c-3.731,0-7.308,1.484-9.944,4.123c-2.635,2.639-4.115,6.218-4.109,9.95l0.074,52.766c0.011,7.753,6.3,14.033,14.053,14.033h1.775
	L43.55,342.417h-4.979H14.053C6.292,342.417,0,348.708,0,356.47c0,7.762,6.292,14.053,14.053,14.053h11.498l2.379,31.139
	l0.069,0.808c3.099,32.835,31.361,58.555,64.343,58.555h98.169c32.981,0,61.243-25.72,64.345-58.573l0.031-0.339
	c0.007-0.077,0.014-0.155,0.02-0.233l1.093-14.313l1.078,14.109l0.069,0.794c3.099,32.835,31.361,58.555,64.342,58.555h98.169
	c32.98,0,61.243-25.72,64.345-58.573l0.031-0.339c0.007-0.077,0.014-0.155,0.02-0.233l2.395-31.357h11.498
	c7.762,0,14.053-6.292,14.053-14.053S505.708,342.417,497.947,342.417z M344.604,241.143c-0.533-7.743-7.239-13.596-14.983-13.057
	c-7.743,0.533-13.588,7.24-13.057,14.983l6.826,99.347h-22.505l-13.993-183.242h167.36l-13.993,183.242H351.56L344.604,241.143z
	 M306.42,106.408c6.797,0,12.621-4.867,13.83-11.556l2.847-15.769h94.952l2.847,15.769c1.207,6.691,7.031,11.557,13.83,11.557
	h35.492l-0.035,24.66h-0.763H271.726h-0.762l-0.035-24.66h35.491V106.408z M255.069,159.176c0.315,0,0.623-0.027,0.932-0.046
	c0.309,0.02,0.617,0.046,0.932,0.046h1.775l13.991,183.242h-4.978h-23.439h-4.978l13.991-183.242H255.069z M42.579,131.07h-0.762
	l-0.035-24.66h35.492c6.797,0,12.621-4.867,13.83-11.557l2.847-15.769h94.952l2.847,15.769c1.207,6.689,7.031,11.556,13.83,11.556
	h35.491l-0.035,24.66h-0.762H42.579V131.07z M57.746,159.176h167.361l-13.993,183.242h-88.699l-6.959-101.274
	c-0.531-7.743-7.249-13.595-14.983-13.057c-7.743,0.533-13.588,7.24-13.057,14.983l6.827,99.347H71.738L57.746,159.176z
	 M226.891,399.622l-0.02,0.205c-1.751,18.556-17.722,33.089-36.361,33.089H92.341c-18.639,0-34.61-14.535-36.35-32.96l-2.253-29.436
	h4.978h165.417h4.978L226.891,399.622z M456.038,399.624l-0.018,0.205c-1.752,18.556-17.724,33.091-36.361,33.091h-98.169
	c-18.639,0-34.61-14.535-36.35-32.974l-2.253-29.422h4.978h165.417h4.978L456.038,399.624z"/>
</svg>